<svg xmlns="http://www.w3.org/2000/svg" xmlns:xlink="http://www.w3.org/1999/xlink" viewBox="0 0 430 430" width="430" height="430" preserveAspectRatio="xMidYMid meet" style="width: 100%; height: 100%; transform: translate3d(0px, 0px, 0px); content-visibility: visible;"><defs><clipPath id="__lottie_element_1854"><rect width="430" height="430" x="0" y="0"/></clipPath><clipPath id="__lottie_element_1856"><path d="M0,0 L430,0 L430,430 L0,430z"/></clipPath></defs><g clip-path="url(#__lottie_element_1854)"><g clip-path="url(#__lottie_element_1856)" transform="matrix(1,0,0,1,0,0)" opacity="1" style="display: block;"><g transform="matrix(1,0,0,1,215,124.46701049804688)" opacity="1" style="display: none;"><g opacity="1" transform="matrix(1,0,0,1,0,0)"><path stroke-linecap="round" stroke-linejoin="round" fill-opacity="0" class="secondary" stroke="rgb(232,104,47)" stroke-opacity="1" stroke-width="12" d=" M25,40.53300094604492 C11.192999839782715,26.72599983215332 -11.192999839782715,26.72599983215332 -25,40.53300094604492"/></g></g><g transform="matrix(1,0,0,1,215,124.46701049804688)" opacity="1" style="display: none;"><g opacity="1" transform="matrix(1,0,0,1,0,0)"><path stroke-linecap="round" stroke-linejoin="round" fill-opacity="0" class="secondary" stroke="rgb(232,104,47)" stroke-opacity="1" stroke-width="12" d=" M50,15.534000396728516 C22.38599967956543,-12.079999923706055 -22.38599967956543,-12.079999923706055 -50,15.534000396728516"/></g></g><g transform="matrix(1,0,0,1,215,124.46701049804688)" opacity="1" style="display: none;"><g opacity="1" transform="matrix(1,0,0,1,0,0)"><path stroke-linecap="round" stroke-linejoin="round" fill-opacity="0" class="secondary" stroke="rgb(232,104,47)" stroke-opacity="1" stroke-width="12" d=" M72.72699737548828,-7.193999767303467 C32.56100082397461,-47.36000061035156 -32.56100082397461,-47.36000061035156 -72.72699737548828,-7.193999767303467"/></g></g><g transform="matrix(1,0,0,1,215,124.46701049804688)" opacity="0.0007272727272091118" style="display: none;"><g opacity="1" transform="matrix(1,0,0,1,0,0)"><path stroke-linecap="round" stroke-linejoin="round" fill-opacity="0" class="secondary" stroke="rgb(232,104,47)" stroke-opacity="1" stroke-width="12" d=" M100.98109436035156,-35.26822280883789 C45.210533142089844,-91.03878021240234 -45.210533142089844,-91.03878021240234 -100.98109436035156,-35.26822280883789"/></g></g><g transform="matrix(1,0,0,1,215,124.46701049804688)" opacity="1" style="display: block;"><g opacity="1" transform="matrix(1,0,0,1,0,0)"><path stroke-linecap="round" stroke-linejoin="round" fill-opacity="0" class="secondary" stroke="rgb(232,104,47)" stroke-opacity="1" stroke-width="12" d=" M25,40.53300094604492 C11.192999839782715,26.72599983215332 -11.192999839782715,26.72599983215332 -25,40.53300094604492"/></g></g><g transform="matrix(1,0,0,1,215,124.46701049804688)" opacity="1" style="display: block;"><g opacity="1" transform="matrix(1,0,0,1,0,0)"><path stroke-linecap="round" stroke-linejoin="round" fill-opacity="0" class="secondary" stroke="rgb(232,104,47)" stroke-opacity="1" stroke-width="12" d=" M50,15.534000396728516 C22.38599967956543,-12.079999923706055 -22.38599967956543,-12.079999923706055 -50,15.534000396728516"/></g></g><g transform="matrix(1,0,0,1,215,124.46701049804688)" opacity="1" style="display: block;"><g opacity="1" transform="matrix(1,0,0,1,0,0)"><path stroke-linecap="round" stroke-linejoin="round" fill-opacity="0" class="secondary" stroke="rgb(232,104,47)" stroke-opacity="1" stroke-width="12" d=" M75,-9.467000007629395 C33.57899856567383,-50.88800048828125 -33.57899856567383,-50.88800048828125 -75,-9.467000007629395"/></g></g><g transform="matrix(1,0,0,1,215,220)" opacity="1" style="display: block;"><g opacity="1" transform="matrix(1,0,0,1,0,0)"><path stroke-linecap="round" stroke-linejoin="round" fill-opacity="0" class="primary" stroke="rgb(83,83,83)" stroke-opacity="1" stroke-width="12" d=" M0,155 C0,155 0,190 0,190 M-30,127.19400024414062 C-30,127.19400024414062 -30,145 -30,145 C-30,150.5229949951172 -25.523000717163086,155 -20,155 C-20,155 20,155 20,155 C25.523000717163086,155 30,150.5229949951172 30,145 C30,145 30,127.19400024414062 30,127.19400024414062 M0,130 C88.36599731445312,130 160,58.36600112915039 160,-30 C160,-118.36599731445312 88.36599731445312,-190 0,-190 C-88.36599731445312,-190 -160,-118.36599731445312 -160,-30 C-160,58.36600112915039 -88.36599731445312,130 0,130z"/></g></g><g transform="matrix(1,0,0,1,215,250)" opacity="1" style="display: block;"><g opacity="1" transform="matrix(1,0,0,1,0,0)"><path stroke-linecap="round" stroke-linejoin="round" fill-opacity="0" class="secondary" stroke="rgb(232,104,47)" stroke-opacity="1" stroke-width="12" d=" M10,-55 C10,-55 10,-10 10,-10 C10,-10 50,-10 50,-10 C50,-10 -10,55 -10,55 C-10,55 -10,10 -10,10 C-10,10 -50,10 -50,10 C-50,10 10,-55 10,-55z"/></g></g></g></g></svg>