<svg xmlns="http://www.w3.org/2000/svg" viewBox="0 0 3000 3000">
  <ellipse cx="1500" cy="2615.1" fill="#eee" rx="1475" ry="98.5"/>
  <path fill="#f7991c" d="M2897.1 2509.9V817.2H1144v331.3h-121.9c-45.7 0-82.8 37.1-82.8 82.8v1164.1l923.1 148.9 915.2 75.7c64.3 5.3 119.5-45.5 119.5-110.1"/>
  <path fill="#fb8c00" d="M2632.8 1613.7h-1433v-451.3H2543c49.6 0 89.8 40.2 89.8 89.8z"/>
  <path fill="#eee" d="M1023.3 540.8h1497.8V1784H1023.3z"/>
  <path fill="#ffa726" d="M2599.9 1412.7H918.7c-79.2 0-139.9 70.6-127.9 148.9l149 974.4c8.2 53.9 54.6 93.7 109.2 93.7h1719.5c67.6 0 119.4-60.3 109.2-127.1l-149.9-980.2c-9.7-63-64-109.7-127.9-109.7"/>
  <path fill="#414042" d="M1516.4 2038.3c-4.7 0-9.4-1.8-13-5.3L1323 1853.3c-7.2-7.2-7.2-18.8-.1-26 7.2-7.2 18.8-7.2 26-.1l180.5 179.6c7.2 7.2 7.2 18.8.1 26-3.6 3.7-8.3 5.5-13.1 5.5"/>
  <path fill="#414042" d="M1335.9 2038.3c-4.7 0-9.4-1.8-13-5.4-7.2-7.2-7.1-18.8.1-26l180.5-179.6c7.2-7.2 18.8-7.1 26 .1s7.1 18.8-.1 26L1348.9 2033c-3.6 3.5-8.3 5.3-13 5.3m793.7 0c-4.7 0-9.4-1.8-13-5.3l-180.5-179.6c-7.2-7.2-7.2-18.8-.1-26 7.2-7.2 18.8-7.2 26-.1l180.5 179.6c7.2 7.2 7.2 18.8.1 26-3.5 3.6-8.2 5.4-13 5.4"/>
  <path fill="#414042" d="M1949.1 2038.3c-4.7 0-9.4-1.8-13-5.4-7.2-7.2-7.1-18.8.1-26l180.5-179.6c7.2-7.2 18.8-7.1 26 .1s7.1 18.8-.1 26L1962.1 2033c-3.6 3.5-8.3 5.3-13 5.3m127 260.5c-2.6 0-5.2-.5-7.7-1.7-222.7-102.6-448.6-102.6-671.3 0-9.2 4.2-20.1.2-24.4-9-4.2-9.2-.2-20.1 9-24.4 232.9-107.3 469.2-107.3 702.1 0 9.2 4.2 13.2 15.2 9 24.4-3.1 6.8-9.7 10.7-16.7 10.7"/>
  <path fill="#f7c19b" d="m129.9 1519.9-25.6 1.2c-4.7.7-9.4-.6-13.1-3.5l-16-12.7c-3-2.4-7.4-1.9-9.9 1-2 2.4-2.2 5.9-.4 8.6l10.3 15c2.7 4 1.3 9.5-3 11.6l-43.4 22.1c-3.4 1.7-4.8 5.8-3.2 9.3 1.6 3.4 5.6 4.9 9 3.5l25.3-10.3-28.6 11.7c-4.1 1.7-5.9 6.6-3.9 10.6 1.8 3.6 6.2 5.2 9.9 3.5l41.7-18.3-33.4 14.4c-3.9 1.7-5.7 6.2-3.9 10.1 1.7 3.8 6.2 5.5 10.1 3.8l44.3-20.3-33.6 15.2c-3.8 1.7-5.5 6.1-3.8 9.9 1.6 3.7 5.7 5.5 9.5 4.1 28.3-10.1 57.8-25.2 87.9-43.1zm501.7-404.1c-30.3 51.7-57.7 46.6-82.4-12.2l-1.8-59.4 79 5.2z"/>
  <path fill="#f7c19b" d="M670 933.8s29.3 79.4 4.2 125.4c-13 23.8-42.2 33.6-67.4 23.4-19.2-7.9-47.6-23.1-70-50.4-1.9-2.4 2.4-74.6 2.4-74.6l16.8-24.9 65.5-10z"/>
  <path fill="#333" d="M591.4 973s8.7 3.2 19.2 4.6c15.3 2.1 29.3-8.8 31.4-24.1l.5-3.8s67.5-4.6 40.8-64.8c-4.4-9.8-13.3-17-24-18.5-13-1.8-33.5 1.1-64.4 18.4-9.2 5.1-20.5 3.7-30.4.2-11.1-3.9-27.9-3.1-38.7 29.7-1.9 5.7-4.7 11.1-8.3 15.9-10.4 13.8-39 72.4 28.8 132 2.1 1.9 5.5.2 5.2-2.6-2-21.3-5.1-78.7 21.3-69.5h.1c4.9 1.8 8.7 5.8 10.1 10.9l3.7 13.1c.9 3.1 4.5 4.4 7.1 2.6 2.7-1.9 5.3-5.1 5.7-8.4-.6-8.1-8.1-35.7-8.1-35.7"/>
  <path fill="#f7c19b" d="m1024.1 1208.2 15.2-25.5c2.4-4.1 3.1-8.9 1.8-13.5l-5.6-19.6c-1.1-3.7 1-7.6 4.7-8.7 3-.9 6.3.3 8 2.9l9.9 15.2c2.6 4 8.2 4.9 11.9 1.7l37-31.7c2.9-2.5 7.2-2.2 9.8.6 2.5 2.8 2.4 7-.2 9.7l-19.2 19.5 21.8-21.9c3.2-3.2 8.3-3 11.2.4 2.6 3.1 2.4 7.7-.5 10.5l-32.9 31.6 26-25.4c3-3 7.9-2.9 10.8.2s2.7 7.9-.4 10.7l-35.7 33.2 26.9-25.2c3-2.8 7.7-2.7 10.6.2 2.8 2.9 2.9 7.4.2 10.4-20.1 22.3-45.3 43.8-73.4 64.8zM434.363 2446.533l72.016 3.468-5.286 109.773-72.016-3.468z"/>
  <path fill="#333" d="m431.1 2573.2-11.7 13.4-3.2 4.4c-1.8 2.6-2.9 5.6-3 8.8l-.6 12.3c-.1 3 2.2 5.6 5.3 5.8l13.6.7.2-3.5 7.4.4-.2 3.4 16.4 1.2.1-2.8 7.7.4-.1 3.1 18.3.8 10-11.5c14.4 4.9 27.3 10.8 38.2 17.8.5.4 19 1.4 19.1.9l.1-2.8 7.2.3-.1 2.8q8.85 1.05 17.7.9l.1-2.9 7 .3-.1 2.3q9.3.45 16.5-1.2l.1-2.3 7.1-.6-.1 2c4.2-.4 8.1-1.3 11.8-2.6l-.3-2.3 6.4-2.3 1.2 2.3c7-2.4 13.3-5.1 18.9-8 0 0 1.6-9.3-4.2-10.1l-74.1-11.8-95.1-17.7z"/>
  <path fill="#58595b" d="M417.5 2565.8c-.2 4.6 0 9.2.8 13.7l1.2 7.1c28.7.9 55.3 4.3 78.9 11.5 4.9 1.5 9.7 3.1 14.3 5 39.6 15.9 81.5 15.7 125.3 1.5l.3-6.7c.2-5-3.1-9.4-7.9-10.6l-31.6-8c-5.6-1.4-11.3-2.7-16.9-4-15.9-3.7-30.4-10.8-43.7-20.8-.7-.5-1.5-1.1-2.2-1.7-.4-.3-.8-.7-1.3-1-1.2 6.9-8.3 15.2-8.7 15.6-.2.2-.5.3-.8.3-.1 0-.3-.1-.4-.2-.4-.3-.4-.9-.1-1.3 2.5-2.9 8.1-10.5 8.4-15.8-.3-.2-.6-.5-.9-.7-5.5-1.8-15.1-.1-19 1-.5.1-1-.2-1.1-.6-.1-.5.2-1 .6-1.1.5-.1 9.5-2.5 16.7-1.7-1.1-.9-2.1-1.9-3.2-2.9-.7-.6-1.3-1.2-2-1.9l-4.2-4.2c-.6-.6-1.1-1.2-1.7-1.7-2-2.2-4-4.4-6-6.7-4.5.1-10.4 3-12.9 4.5-.4.3-1 .1-1.2-.3-.3-.4-.1-1 .3-1.2s6.7-3.9 12.4-4.6c-.8-.9-1.6-1.9-2.3-2.8-1.3-1.6-3.1-2.6-5.2-2.8l-74.2-6.3c-2.7-.2-5.1 1.9-5.1 4.6l-.1 8.8c-.1 6.5-1.2 13-3.2 19.1-2 5.4-3.1 11.1-3.3 16.9"/>
  <path fill="#231f20" d="M524.6 2567.4c.1.1.3.2.4.2.3 0 .6-.1.8-.3.4-.4 7.5-8.7 8.7-15.6-.5-.4-1.1-.9-1.6-1.3-.4 5.3-5.9 12.9-8.4 15.8-.3.3-.3.9.1 1.2m-12.7-17.4c.1.5.6.8 1.1.6 3.9-1.1 13.5-2.8 19-1-.9-.8-1.9-1.6-2.8-2.4-7.2-.8-16.1 1.5-16.7 1.7-.4.1-.7.6-.6 1.1"/>
  <path fill="#303030" d="M498.1 2533.9c.2.4.8.6 1.2.3 2.5-1.5 8.4-4.3 12.9-4.5-.5-.6-1-1.1-1.4-1.7-5.7.7-12 4.4-12.4 4.6-.4.4-.6.9-.3 1.3"/>
  <path fill="#414042" d="M417.5 2565.8c-.2 4.6 0 9.2.8 13.7l1.2 7.1c28.7.9 55.3 4.3 78.9 11.5l38-23.6c2.2-1.4 2.7-4.3 1.2-6.4l-34.2-45.7-74.2-6.3c-2.7-.2-5.1 1.9-5.1 4.6l-.1 8.8c-.1 6.5-1.2 13-3.2 19.1-2 5.7-3.1 11.4-3.3 17.2"/>
  <path fill="#58595b" d="m501.7 2525.8.7-.5-.5-.5-.7-.1v.8h.3zm-80.2 55.9.8-.1.2 1.1-.8.1zm-.4-2.2.8-.1.2 1.1-.8.1zm-.3-2.1.8-.1c.1.4.1.7.2 1.1l-.8.1c-.1-.4-.2-.7-.2-1.1m-.3-2.1.8-.1c0 .4.1.7.1 1.1l-.8.1c0-.4-.1-.8-.1-1.1m-.2-2.2.8-.1c0 .4.1.7.1 1.1l-.8.1c0-.4-.1-.7-.1-1.1m-.1-2.2h.8v1.1h-.8zm0-2.1h.8v1.1h-.8zm0-2.2h.8v1.1h-.8zm.1-1.1c0-.4 0-.7.1-1.1l.8.1c0 .4 0 .7-.1 1.1zm.1-2.1c0-.4.1-.7.1-1.1l.8.1c0 .4-.1.7-.1 1.1zm.2-2.2c0-.4.1-.7.1-1.1l.8.1c0 .4-.1.7-.1 1.1zm.3-2.1c.1-.4.1-.7.2-1.1l.8.1c-.1.3-.1.7-.2 1.1zm.4-2.2c.1-.4.1-.7.2-1.1l.8.2c-.1.3-.1.7-.2 1zm.4-2.1c.1-.4.2-.7.3-1.1l.8.2c-.1.3-.2.7-.2 1zm.6-2.1c.1-.3.2-.7.3-1l.8.2c-.1.3-.2.7-.3 1zm.6-2c.1-.3.2-.7.3-1l.8.2c-.1.3-.2.7-.3 1zm.6-2.1c.1-.3.2-.7.3-1l.8.2c-.1.3-.2.7-.3 1zm.6-2.1c.1-.3.2-.7.3-1l.8.2c-.1.3-.2.7-.3 1zm.5-2c.1-.3.2-.7.2-1l.8.2c-.1.4-.2.7-.2 1.1zm.5-2.1c.1-.3.1-.7.2-1l.8.2c-.1.4-.1.7-.2 1.1zm.4-2.1c.1-.4.1-.7.2-1.1l.8.1c-.1.4-.1.7-.2 1.1zm.4-2.1c.1-.4.1-.7.1-1.1l.8.1c0 .4-.1.7-.1 1.1zm.2-2.1c0-.4.1-.7.1-1.1l.8.1c0 .4-.1.7-.1 1.1zm.2-2.2c0-.4.1-.7.1-1.1h.8c0 .4 0 .7-.1 1.1zm.2-3.2h.8v1.1h-.8zm0-2.1h.8v1.1h-.8zm.1-2.2h.8v1.1h-.8zm0-2.1h.8v1.1h-.8zm0-2.2h.8v1.1h-.8zm72.4 3.2.1-.8 1.1.1-.1.8zm-2.1-.2.1-.8 1.1.1-.1.8zm-2.2-.1.1-.8 1.1.1-.1.8zm-2.1-.2.1-.8 1.1.1-.1.8zm-2.2-.2.1-.8 1.1.1-.1.8zm-2.1-.2.1-.8 1.1.1-.1.8zm-2.2-.2.1-.8 1.1.1-.1.8zm-2.1-.2.1-.8 1.1.1-.1.8zm-2.2-.1.1-.8 1.1.1-.1.8zm-2.1-.2.1-.8 1.1.1-.2.8zm-53-2.7c.1-.4.2-.8.5-1.1l.7.5c-.2.2-.3.5-.3.8zm50.8 2.5.1-.8 1.1.1-.1.8zm-2.1-.2.1-.8 1.1.1-.1.8zm-2.1-.2.1-.8 1.1.1-.2.8zm-2.2-.2.1-.8 1.1.1-.1.8zm-2.1-.1.1-.8 1.1.1-.1.8zm-2.2-.2.1-.8 1.1.1-.1.8zm-2.1-.2.1-.8 1.1.1-.1.8zm-2.2-.2.1-.8 1.1.1-.1.8zm-2.1-.2.1-.8 1.1.1-.1.8zm-2.2-.2.1-.8 1.1.1-.1.8zm-2.1-.1.1-.8 1.1.1-.1.8zm-2.1-.2.1-.8 1.1.1-.1.8zm-2.2-.2.1-.8 1.1.1-.1.8zm-2.1-.2.1-.8 1.1.1-.1.8zm-2.2-.2.1-.8 1.1.1-.1.8zm-2.1-.2.1-.8 1.1.1-.1.8zm-2.2-.1.1-.8 1.1.1-.1.8zm-2.1-.2.1-.8 1.1.1-.1.8zm-2.2-.2.1-.8 1.1.1-.1.8zm-10.8-1.2c.4-.2.7-.3 1.2-.4l.1.8q-.45 0-.9.3zm8.7 1 .1-.8 1.1.1-.1.8zm-2.2-.2.1-.8 1.1.1-.1.8zm-2.1-.1.1-.8 1.1.1-.1.8zm-2.2-.2.1-.8 1.1.1-.1.8zm-8.4 65 .9.1v-.8l-.2-.1v-.2l-.8.2zm73.1 10.3.2-.8 1 .3-.2.8zm-2.1-.6.2-.8 1 .3-.2.8zm-2-.5.2-.8 1 .3-.2.8zm-2-.6.2-.8 1 .3-.2.8zm-2.1-.5.2-.8 1 .3-.2.8zm-2.1-.5.2-.8 1 .2-.2.8zm-2-.4.2-.8 1 .2-.2.8zm-2.1-.5.2-.8 1 .2-.2.8zm-2.1-.4.2-.8 1 .2-.2.8zm-2-.5.2-.8 1 .2-.2.8zm-2.1-.4.1-.8 1 .2-.2.8zm-2.1-.3.1-.8 1 .2-.1.8zm-2.1-.4.1-.8 1 .2-.1.8zm-2.1-.4.1-.8 1 .2-.1.8zm-2.1-.3.1-.8 1 .2-.1.8zm-2.1-.3.1-.8 1 .2-.1.8zm-2.1-.3.1-.8 1.1.2-.1.8zm-2.1-.3.1-.8 1.1.1-.1.8zm-2.1-.3.1-.8 1.1.1-.1.8zm-2.1-.3.1-.8 1.1.1-.1.8zm-2.1-.2.1-.8 1.1.1-.1.8zm-2.1-.3.1-.8 1.1.1-.1.8zm-2.1-.2.1-.8 1.1.1-.1.8zm-2.1-.2.1-.8 1.1.1-.1.8zm-2.1-.2.1-.8 1.1.1-.1.8zm-2.1-.2.1-.8 1.1.1-.1.8zm-2.1-.1.1-.8 1.1.1-.1.8zm-2.1-.2.1-.8 1.1.1-.1.8zm-2.1-.1.1-.8 1.1.1-.1.8zm-2.2-.2.1-.8 1.1.1-.1.8zm-2.1-.1v-.8l1.1.1v.8zm-8.4-1.2h1.1v.8h-1.1zm6.3 1.1v-.8l1.1.1v.8zm-4.2-1h1.1v.8H426zm2.1.9v-.8l1.1.1v.8zm69.6 10.8.6-.4-.4-.7-.3.2-.3-.1-.3.8zm1.1-1.6.9-.6.4.7-.9.6zm1.8-1.1.9-.6.4.7-.9.6zm1.8-1.2.9-.6.4.7-.9.6zm1.8-1.1.9-.6.4.7-.9.6zm1.8-1.1.9-.6.4.7-.9.6zm1.8-1.1.9-.6.4.7-.9.6zm1.8-1.1.9-.6.4.7-.9.6zm1.8-1.2.9-.6.4.7-.9.6zm1.8-1.1.9-.6.4.7-.9.6zm1.8-1.1.9-.6.4.7-.9.6zm1.8-1.1.9-.6.4.7-.9.6zm1.8-1.1.9-.6.4.7-.9.6zm1.8-1.2.9-.6.4.7-.9.6zm1.8-1.1.9-.6.4.7-.9.6zm1.8-1.1.9-.6.4.7-.9.6zm1.8-1.1.9-.6.4.7-.9.6zm1.8-1.1.9-.6.4.7-.9.6zm1.8-1.2.9-.6.4.7-.9.6zm1.8-1.1.9-.6.4.7-.9.6zm1.8-1.1.9-.6.4.7-.9.6zm1.5-1.2c.1-.2.2-.4.2-.6v-.2l.8.1v.3c-.1.3-.2.6-.4.9zm-.1-2-.3-.4.6-.5.3.4.3.6-.7.3c0-.2-.1-.3-.2-.4m-1.5-2.1.6-.5.6.8-.6.5zm-1.3-1.7.6-.5.6.8-.6.5zm-1.3-1.7.6-.5.6.8-.6.5zm-1.2-1.7.6-.5.6.8-.6.5zm-1.3-1.7.6-.5.6.8-.6.5zm-1.3-1.7.6-.5.6.8-.6.5zm-1.3-1.7.6-.5.6.8-.6.5zm-1.2-1.7.6-.5.6.8-.6.5zm-1.3-1.7.6-.5.6.8-.6.5zm-1.3-1.7.6-.5.6.8-.6.5zm-1.2-1.7.6-.5.6.8-.6.5zm-1.3-1.7.6-.5.6.8-.6.5zm-1.3-1.7.6-.5.6.8-.6.5zm-1.3-1.7.6-.5.6.8-.6.5zm-1.2-1.7.6-.5.6.8-.6.5zm-1.3-1.7.6-.5.6.8-.6.5zm-1.3-1.7.6-.5.6.8-.6.5zm-1.2-1.7.6-.5.6.8-.6.5zm-1.3-1.7.6-.5.6.8-.6.5zm-1.3-1.6.6-.5.6.8-.6.5zm-1.3-1.7.6-.5.6.8-.6.5zm-1.2-1.7.6-.5.6.8-.6.5zm-1.3-1.7.6-.5.6.8-.6.5zm-1.3-1.7.6-.5.6.8-.6.5zm-1.2-1.7.6-.5.6.8-.6.5z"/>
  <path fill="#e6e7e8" d="M520.8 2566c.4-2.2 2.5-3.7 4.8-3.4 2.2.4 3.7 2.5 3.4 4.8-.4 2.2-2.5 3.7-4.8 3.4-2.2-.5-3.7-2.6-3.4-4.8m1.3.2c-.3 1.5.8 3 2.3 3.3s3-.8 3.3-2.3-.8-3-2.3-3.3c-1.6-.3-3 .7-3.3 2.3m-14.3-16.5c.4-2.2 2.5-3.7 4.8-3.4 2.2.4 3.7 2.5 3.4 4.8-.4 2.2-2.5 3.7-4.8 3.4-2.3-.4-3.8-2.5-3.4-4.8m1.3.2c-.3 1.5.8 3 2.3 3.3s3-.8 3.3-2.3-.8-3-2.3-3.3c-1.6-.2-3.1.8-3.3 2.3"/>
  <path fill="#231f20" d="M524.5 2566.1c-.3.4-.3.9.1 1.3.1.1.3.2.4.2.3 0 .6-.1.8-.3.4-.4 7.5-8.7 8.7-15.6 0-.2.1-.4.1-.6.1-.8.1-1.5 0-2.2-.1-.8-.3-1.5-.6-2.2-1.4-2.8-4.7-4.2-10-4.2.7.7 1.3 1.3 2 1.9 3.4.3 5.5 1.3 6.4 3.1.1.2.1.3.2.5.2.6.3 1.3.3 2v.4c-.3 5.3-5.8 12.8-8.4 15.7"/>
  <path fill="#231f20" d="M511.9 2550c.1.5.6.8 1.1.6 3.9-1.1 13.5-2.8 19-1l.9.3c.7.3 1.2.6 1.7 1.1l.6.6c.3.3.5.7.6 1.1.7.6 1.5 1.1 2.2 1.7-.1-1.5-.5-2.8-1.4-3.8-.5-.7-1.2-1.2-1.9-1.7-.6-.4-1.3-.7-2-.9-1.1-.4-2.2-.6-3.4-.7-7.2-.8-16.1 1.5-16.7 1.7-.5 0-.8.5-.7 1"/>
  <path fill="#e6e7e8" d="M494.7 2533.3c.1-2.3 2.1-4 4.3-3.9 2.3.1 4 2.1 3.9 4.3-.1 2.3-2.1 4-4.3 3.9s-4-2.1-3.9-4.3m1.3 0c-.1 1.6 1.1 2.9 2.7 3s2.9-1.1 3-2.7-1.1-2.9-2.7-3c-1.6 0-2.9 1.2-3 2.7"/>
  <path fill="#231f20" d="M498.1 2533.9c.2.4.8.6 1.2.3 2.5-1.5 8.4-4.3 12.9-4.5 1.5-.1 2.9.2 3.9.9 1.5 1 2.2 2.9 2.1 5.8.5.6 1.1 1.2 1.7 1.7.4-4.4-.5-7.4-2.8-9-1.7-1.2-4-1.4-6.3-1.1-5.7.7-12 4.4-12.4 4.6-.4.4-.6.9-.3 1.3"/>
  <path fill="#f7c19b" d="m679.349 2449.58 71.35-2.728 4.198 109.823-71.35 2.727z"/>
  <path fill="#333" d="m683.2 2573.2-11.7 13.4-3.2 4.4c-1.8 2.6-2.9 5.6-3 8.8l-.6 12.3c-.1 3 2.2 5.6 5.3 5.8l13.6.7.2-3.5 7.4.4-.2 3.4 16.4 1.2.1-2.8 7.7.4-.1 3.1 18.3.8 10-11.5c14.4 4.9 27.3 10.8 38.2 17.8.5.4 19 1.4 19.1.9l.1-2.8 7.2.3-.1 2.8q8.85 1.05 17.7.9l.1-2.9 7 .3-.1 2.3q9.3.45 16.5-1.2l.1-2.3 7.1-.6-.1 2c4.2-.4 8.1-1.3 11.8-2.6l-.3-2.3 6.4-2.3 1.2 2.3c7-2.4 13.3-5.1 18.9-8 0 0 1.6-9.3-4.2-10.1l-74.1-11.8-95.1-17.7z"/>
  <path fill="#58595b" d="M669.6 2565.8c-.2 4.6 0 9.2.8 13.7l1.2 7.1c28.7.9 55.3 4.3 78.9 11.5 4.9 1.5 9.7 3.1 14.3 5 39.6 15.9 81.5 15.7 125.3 1.5l.3-6.7c.2-5-3.1-9.4-7.9-10.6l-31.6-8c-5.6-1.4-11.3-2.7-16.9-4-15.9-3.7-30.4-10.8-43.7-20.8-.7-.5-1.5-1.1-2.2-1.7-.4-.3-.8-.7-1.3-1-1.2 6.9-8.3 15.2-8.7 15.6-.2.2-.5.3-.8.3-.1 0-.3-.1-.4-.2-.4-.3-.4-.9-.1-1.3 2.5-2.9 8.1-10.5 8.4-15.8-.3-.2-.6-.5-.9-.7-5.5-1.8-15.1-.1-19 1-.5.1-1-.2-1.1-.6-.1-.5.2-1 .6-1.1.5-.1 9.5-2.5 16.7-1.7-1.1-.9-2.1-1.9-3.2-2.9-.7-.6-1.3-1.2-2-1.9l-4.2-4.2c-.6-.6-1.1-1.2-1.7-1.7-2-2.2-4-4.4-6-6.7-4.5.1-10.4 3-12.9 4.5-.4.3-1 .1-1.2-.3-.3-.4-.1-1 .3-1.2s6.7-3.9 12.4-4.6c-.8-.9-1.6-1.9-2.3-2.8-1.3-1.6-3.1-2.6-5.2-2.8l-74.2-6.3c-2.7-.2-5.1 1.9-5.1 4.6l-.1 8.8c-.1 6.5-1.2 13-3.2 19.1-2 5.4-3 11.1-3.3 16.9"/>
  <path fill="#231f20" d="M776.8 2567.4c.1.1.3.2.4.2.3 0 .6-.1.8-.3.4-.4 7.5-8.7 8.7-15.6-.5-.4-1.1-.9-1.6-1.3-.4 5.3-5.9 12.9-8.4 15.8-.4.3-.3.9.1 1.2m-12.7-17.4c.1.5.6.8 1.1.6 3.9-1.1 13.5-2.8 19-1-.9-.8-1.9-1.6-2.8-2.4-7.2-.8-16.1 1.5-16.7 1.7-.5.1-.7.6-.6 1.1"/>
  <path fill="#303030" d="M750.2 2533.9c.2.4.8.6 1.2.3 2.5-1.5 8.4-4.3 12.9-4.5-.5-.6-1-1.1-1.4-1.7-5.7.7-12 4.4-12.4 4.6-.4.4-.6.9-.3 1.3"/>
  <path fill="#414042" d="M669.6 2565.8c-.2 4.6 0 9.2.8 13.7l1.2 7.1c28.7.9 55.3 4.3 78.9 11.5l38-23.6c2.2-1.4 2.7-4.3 1.2-6.4l-34.2-45.7-74.2-6.3c-2.7-.2-5.1 1.9-5.1 4.6l-.1 8.8c-.1 6.5-1.2 13-3.2 19.1-2 5.7-3 11.4-3.3 17.2"/>
  <path fill="#58595b" d="m753.9 2525.8.6-.5-.4-.5-.7-.1-.1.8h.3zm-80.3 55.9.8-.1.2 1.1-.8.1zm-.4-2.2.8-.1.2 1.1-.8.1zm-.3-2.1.8-.1c0 .4.1.7.2 1.1l-.8.1c-.1-.4-.1-.7-.2-1.1m-.3-2.1.8-.1c0 .4.1.7.1 1.1l-.8.1c0-.4 0-.8-.1-1.1m-.1-2.2.8-.1c0 .4.1.7.1 1.1l-.8.1c-.1-.4-.1-.7-.1-1.1m-.2-2.2h.8v1.1h-.8c.1-.3.1-.7 0-1.1m0-2.1h.8v1.1h-.8zm0-2.2h.8v1.1h-.8zm.1-1.1c0-.4 0-.7.1-1.1l.8.1c0 .4 0 .7-.1 1.1zm.1-2.1c0-.4.1-.7.1-1.1l.8.1c0 .4-.1.7-.1 1.1zm.3-2.2c0-.4.1-.7.1-1.1l.8.1c0 .4-.1.7-.1 1.1zm.3-2.1c.1-.4.1-.7.2-1.1l.8.1c-.1.3-.1.7-.2 1.1zm.3-2.2c.1-.4.1-.7.2-1.1l.8.2c-.1.3-.1.7-.2 1zm.5-2.1c.1-.4.2-.7.2-1.1l.8.2c-.1.3-.2.7-.2 1zm.5-2.1c.1-.3.2-.7.3-1l.8.2c-.1.3-.2.7-.3 1zm.6-2c.1-.3.2-.7.3-1l.8.2c-.1.3-.2.7-.3 1zm.6-2.1c.1-.3.2-.7.3-1l.8.2c-.1.3-.2.7-.3 1zm.6-2.1c.1-.3.2-.7.3-1l.8.2c-.1.3-.2.7-.3 1zm.6-2c.1-.3.2-.7.2-1l.8.2c-.1.4-.2.7-.2 1.1zm.5-2.1c.1-.3.1-.7.2-1l.8.2c-.1.4-.1.7-.2 1.1zm.4-2.1c.1-.4.1-.7.2-1.1l.8.1c-.1.4-.1.7-.2 1.1zm.3-2.1c.1-.4.1-.7.1-1.1l.8.1c0 .4-.1.7-.1 1.1zm.3-2.1c0-.4.1-.7.1-1.1l.8.1c0 .4-.1.7-.1 1.1zm.2-2.2c0-.4.1-.7.1-1.1h.8c0 .4 0 .7-.1 1.1zm.1-3.2h.8v1.1h-.8zm.1-2.1h.8v1.1h-.8zm0-2.2h.8v1.1h-.8zm0-2.1h.8v1.1h-.8zm.1-2.2h.8v1.1h-.8zm72.3 3.2.1-.8 1.1.1-.1.8zm-2.1-.2.1-.8 1.1.1-.1.8zm-2.2-.1.1-.8 1.1.1-.1.8zm-2.1-.2.1-.8 1.1.1-.1.8zm-2.1-.2.1-.8 1.1.1-.1.8zm-2.2-.2.1-.8 1.1.1-.1.8zm-2.1-.2.1-.8 1.1.1-.1.8zm-2.2-.2.1-.8 1.1.1-.1.8zm-2.1-.1.1-.8 1.1.1-.1.8zm-2.2-.2.1-.8 1.1.1-.2.8zm-53-2.7c.1-.4.2-.8.5-1.1l.7.5c-.2.2-.3.5-.3.8zm50.9 2.5.1-.8 1.1.1-.1.8zm-2.2-.2.1-.8 1.1.1-.1.8zm-2.1-.2.1-.8 1.1.1-.2.8zm-2.1-.2.1-.8 1.1.1-.1.8zm-2.2-.1.1-.8 1.1.1-.1.8zm-2.1-.2.1-.8 1.1.1-.1.8zm-2.2-.2.1-.8 1.1.1-.1.8zm-2.1-.2.1-.8 1.1.1-.1.8zm-2.2-.2.1-.8 1.1.1-.1.8zm-2.1-.2.1-.8 1.1.1-.1.8zm-2.2-.1.1-.8 1.1.1-.1.8zm-2.1-.2.1-.8 1.1.1-.1.8zm-2.2-.2.1-.8 1.1.1-.1.8zm-2.1-.2.1-.8 1.1.1-.1.8zm-2.1-.2.1-.8 1.1.1-.1.8zm-2.2-.2.1-.8 1.1.1-.1.8zm-2.1-.1.1-.8 1.1.1-.1.8zm-2.2-.2.1-.8 1.1.1-.1.8zm-2.1-.2.1-.8 1.1.1-.1.8zm-10.9-1.2c.4-.2.7-.3 1.2-.4l.1.8q-.45 0-.9.3zm8.7 1 .1-.8 1.1.1-.1.8zm-2.1-.2.1-.8 1.1.1-.1.8zm-2.2-.1.1-.8 1.1.1-.1.8zm-2.1-.2.1-.8 1.1.1-.1.8zm-8.4 65 .8.1.1-.8-.3-.1v-.2l-.8.2zm73 10.3.2-.8 1 .3-.2.8zm-2-.6.2-.8 1 .3-.2.8zm-2.1-.5.2-.8 1 .3-.2.8zm-2-.6.2-.8 1 .3-.2.8zm-2.1-.5.2-.8 1 .3-.2.8zm-2-.5.2-.8 1 .2-.2.8zm-2.1-.4.2-.8 1 .2-.2.8zm-2.1-.5.2-.8 1 .2-.2.8zm-2-.4.2-.8 1 .2-.2.8zm-2.1-.5.2-.8 1 .2-.2.8zm-2.1-.4.1-.8 1 .2-.2.8zm-2.1-.3.1-.8 1 .2-.1.8zm-2.1-.4.1-.8 1 .2-.1.8zm-2-.4.1-.8 1 .2-.1.8zm-2.1-.3.1-.8 1 .2-.1.8zm-2.1-.3.1-.8 1 .2-.1.8zm-2.1-.3.1-.8 1.1.2-.1.8zm-2.1-.3.1-.8 1.1.1-.1.8zm-2.1-.3.1-.8 1.1.1-.1.8zm-2.1-.3.1-.8 1.1.1-.1.8zm-2.1-.2.1-.8 1.1.1-.1.8zm-2.1-.3.1-.8 1.1.1-.1.8zm-2.1-.2.1-.8 1.1.1-.1.8zm-2.1-.2.1-.8 1.1.1-.1.8zm-2.2-.2.1-.8 1.1.1-.1.8zm-2.1-.2.1-.8 1.1.1-.1.8zm-2.1-.1.1-.8 1.1.1-.1.8zm-2.1-.2.1-.8 1.1.1-.1.8zm-2.1-.1.1-.8 1.1.1-.1.8zm-2.1-.2.1-.8 1.1.1-.1.8zm-2.1-.1v-.8l1.1.1v.8zm-8.5-1.2h1.1v.8H676zm6.3 1.1v-.8l1.1.1v.8zm-4.2-1h1.1v.8h-1.1zm2.1.9v-.8l1.1.1v.8zm69.6 10.8.7-.4-.5-.7-.3.2-.3-.1-.2.8zm1.1-1.6.9-.6.4.7-.9.6zm1.8-1.1.9-.6.4.7-.9.6zm1.8-1.2.9-.6.4.7-.9.6zm1.8-1.1.9-.6.4.7-.9.6zm1.8-1.1.9-.6.4.7-.9.6zm1.8-1.1.9-.6.4.7-.9.6zm1.8-1.1.9-.6.4.7-.9.6zm1.8-1.2.9-.6.4.7-.9.6zm1.8-1.1.9-.6.4.7-.9.6zm1.8-1.1.9-.6.4.7-.9.6zm1.8-1.1.9-.6.4.7-.9.6zm1.8-1.1.9-.6.4.7-.9.6zm1.8-1.2.9-.6.4.7-.9.6zm1.8-1.1.9-.6.4.7-.9.6zm1.8-1.1.9-.6.4.7-.9.6zm1.8-1.1.9-.6.4.7-.9.6zm1.8-1.1.9-.6.4.7-.9.6zm1.8-1.2.9-.6.4.7-.9.6zm1.8-1.1.9-.6.4.7-.9.6zm1.8-1.1.9-.6.4.7-.9.6zm1.6-1.2c.1-.2.2-.4.2-.6v-.2l.8.1v.3c-.1.3-.2.6-.4.9zm-.1-2-.3-.4.6-.5.3.4.3.6-.7.3c-.1-.2-.1-.3-.2-.4m-1.6-2.1.6-.5.6.8-.6.5zm-1.3-1.7.6-.5.6.8-.6.5zm-1.2-1.7.6-.5.6.8-.6.5zm-1.3-1.7.6-.5.6.8-.6.5zm-1.3-1.7.6-.5.6.8-.6.5zm-1.3-1.7.6-.5.6.8-.6.5zm-1.2-1.7.6-.5.6.8-.6.5zm-1.3-1.7.6-.5.6.8-.6.5zm-1.3-1.7.6-.5.6.8-.6.5zm-1.2-1.7.6-.5.6.8-.6.5zm-1.3-1.7.6-.5.6.8-.6.5zm-1.3-1.7.6-.5.6.8-.6.5zm-1.3-1.7.6-.5.6.8-.6.5zm-1.2-1.7.6-.5.6.8-.6.5zm-1.3-1.7.6-.5.6.8-.6.5zm-1.3-1.7.6-.5.6.8-.6.5zm-1.2-1.7.6-.5.6.8-.6.5zm-1.3-1.7.6-.5.6.8-.6.5zm-1.3-1.7.6-.5.6.8-.6.5zm-1.3-1.6.6-.5.6.8-.6.5zm-1.2-1.7.6-.5.6.8-.6.5zm-1.3-1.7.6-.5.6.8-.6.5zm-1.3-1.7.6-.5.6.8-.6.5zm-1.2-1.7.6-.5.6.8-.6.5zm-1.3-1.7.6-.5.6.8-.6.5z"/>
  <path fill="#e6e7e8" d="M773 2566c.4-2.2 2.5-3.7 4.8-3.4 2.2.4 3.7 2.5 3.4 4.8-.4 2.2-2.5 3.7-4.8 3.4-2.3-.5-3.8-2.6-3.4-4.8m1.2.2c-.3 1.5.8 3 2.3 3.3s3-.8 3.3-2.3-.8-3-2.3-3.3-3 .7-3.3 2.3m-14.3-16.5c.4-2.2 2.5-3.7 4.8-3.4 2.2.4 3.7 2.5 3.4 4.8-.4 2.2-2.5 3.7-4.8 3.4-2.2-.4-3.8-2.5-3.4-4.8m1.3.2c-.3 1.5.8 3 2.3 3.3s3-.8 3.3-2.3-.8-3-2.3-3.3c-1.6-.2-3 .8-3.3 2.3"/>
  <path fill="#231f20" d="M776.7 2566.1c-.3.4-.3.9.1 1.3.1.1.3.2.4.2.3 0 .6-.1.8-.3.4-.4 7.5-8.7 8.7-15.6 0-.2.1-.4.1-.6.1-.8.1-1.5 0-2.2-.1-.8-.3-1.5-.6-2.2-1.4-2.8-4.7-4.2-10-4.2.7.7 1.3 1.3 2 1.9 3.4.3 5.5 1.3 6.4 3.1.1.2.1.3.2.5.2.6.3 1.3.3 2v.4c-.4 5.3-5.9 12.8-8.4 15.7"/>
  <path fill="#231f20" d="M764.1 2550c.1.5.6.8 1.1.6 3.9-1.1 13.5-2.8 19-1l.9.3c.7.3 1.2.6 1.7 1.1l.6.6c.3.3.5.7.6 1.1.7.6 1.5 1.1 2.2 1.7-.1-1.5-.5-2.8-1.4-3.8-.5-.7-1.2-1.2-1.9-1.7-.6-.4-1.3-.7-2-.9-1.1-.4-2.2-.6-3.4-.7-7.2-.8-16.1 1.5-16.7 1.7-.6 0-.8.5-.7 1"/>
  <path fill="#e6e7e8" d="M746.9 2533.3c.1-2.3 2.1-4 4.3-3.9 2.3.1 4 2.1 3.9 4.3-.1 2.3-2.1 4-4.3 3.9-2.3-.1-4.1-2.1-3.9-4.3m1.2 0c-.1 1.6 1.1 2.9 2.7 3s2.9-1.1 3-2.7-1.1-2.9-2.7-3c-1.5 0-2.9 1.2-3 2.7"/>
  <path fill="#231f20" d="M750.2 2533.9c.2.4.8.6 1.2.3 2.5-1.5 8.4-4.3 12.9-4.5 1.5-.1 2.9.2 3.9.9 1.5 1 2.2 2.9 2.1 5.8.6.6 1.1 1.2 1.7 1.7.4-4.4-.5-7.4-2.8-9-1.7-1.2-4-1.4-6.3-1.1-5.7.7-12 4.4-12.4 4.6-.4.4-.6.9-.3 1.3"/>
  <path fill="#333" d="m438.3 1652.3-19.8 840.8 99.2 4.7 80.4-637.9L666 2493l97.6 4.7-1.2-898.7-176.8-29.4z"/>
  <path fill="#eee" d="m532.1 1136.2 17.1-32.6c23.3 32.4 50.5 38 82.4 12.2L718 1252l-29.1 62.1-5.5 223.1-27.3 105.6c-18.9 27.5-49.1 31.1-85.7 21.1l-40.9-28.3-55.9-222.9-.1-93.9s18.8-65.7 21.9-69.1c3-3.3 36.7-113.5 36.7-113.5"/>
  <path fill="#1e88e5" d="m390.1 1417.6 42.7-67.7 2.1 364c0 4 3.4 7.2 7.4 7 24.7-.9 104.5-7.7 128.1-57.1 2.2-4.6-.2-11-1.2-15.6-1.6-7.7-2.8-15.5-3.8-23.3-12.3-93.2 10.6-186 8.6-279.2-1.6-74.5-15.2-149.2-22.8-223.3-.1-1-2.1-18.8-2.1-18.8-75 8.5-161.7 90-235.9 249.4-12.5 26.8-32.5 49.4-57.6 65l-147.1 91.6 39.4 77.5 141.2-75.5c41.3-22 76.1-54.4 101-94m640.9-239.9-132.6 118.5c-6 5.3-14.5 6.4-21.7 2.9-27.8-13.6-51.6-34.1-72.7-56.4-15.7-16.5-29-35-45.5-50.8-15.5-14.8-32.5-28.1-50.5-39.8-11.4-7.4-23.2-14.1-35.5-20-6.5-3.1-13.1-6-19.7-8.7-2.4-1-19.6-6.5-21.2-7.6 3.9 19.2 7.9 38.5 11.8 57.7 7.4 36.2 10.6 71.2 7.2 108.3-2.7 29.7-7.2 59.2-7.4 89.1-.2 34.9 7.6 68.4 11.9 102.7 8 64 1.9 129.3.4 193.6-.2 9.2 7.8 16.4 16.9 15.3 36.2-4.6 66.8-18.9 91.5-43.3 2.7-2.6 4-6.3 3.6-10-4.9-42.6-10.5-85.1-16.7-127.5-6.8-46.3-22.7-184.2-14.8-185.9 7.1-1.6 24.6 14.3 31 18.5 27.2 18.1 57.3 35 82.6 55.5 2.5 1.7 5.5 4.5 8.4 5.6 26.1 17.4 60.8 13.9 82.8-8.4l141.6-143.8z"/>
  <path fill="#eab896" d="M629.3 1086.6s-32.8 4.3-64.9-19.9c0 0 18.6 27.8 65.9 32.9z"/>
  <path fill="#414042" d="M1054.5 471c-117.1 178.9-75.5 416.5 90.1 545.9 9 7 18.3 13.7 28 20.1s19.6 12.2 29.6 17.6c184.7 100 419.2 43.2 536.3-135.7 123.5-188.5 70.5-442.4-118-565.9-188.6-123.5-442.5-70.5-566 118m54.9 36c103.6-158.3 316.7-202.7 475-99.1s202.7 316.8 99.1 475c-103.7 158.3-316.8 202.8-475 99.1-158.3-103.6-202.7-316.7-99.1-475"/>
  <path fill="#eee" d="M1109.4 507c-103.7 158.3-59.2 371.4 99.1 475.1 158.3 103.6 371.4 59.2 475-99.1s59.2-371.4-99.1-475c-158.2-103.7-371.3-59.3-475 99"/>
  <path fill="#414042" d="M648.8 1809.6c37.8 24.8 88.7 12.8 111.5-26.2l455.7-779.9-55-36L628.3 1697c-26.7 36.4-17.3 87.8 20.5 112.6"/>
  <path fill="#fff" d="M1651.1 780.8c.7.4 1.4.8 2.2 1.2 7.9 3.5 17.1 0 20.6-7.8 1-2.2 24.3-55 14.8-126.3-8.7-65.3-47.7-159.2-184.2-235.2-7.5-4.2-17.1-1.5-21.3 6s-1.6 17 6 21.3c99.8 55.6 156.4 126.5 168.2 210.6 8.8 62.8-11.9 110.4-12.1 110.9-3 6.9-.4 15.2 5.8 19.3m-26 61.5c.4.3.9.6 1.4.8 6.1 2.9 13.4.4 16.3-5.7l4.9-10.2c2.9-6.1.4-13.4-5.7-16.3s-13.4-.4-16.3 5.7l-4.9 10.2c-2.7 5.5-.8 12.2 4.3 15.5"/>
  <g fill="#ef5350">
    <path d="M1569.3 867.8c-12.6 12.6-33.1 12.6-45.7 0l-299.9-299.9c-12.6-12.6-12.6-33.1 0-45.7s33.1-12.6 45.7 0l299.9 299.9c12.6 12.6 12.6 33.1 0 45.7"/>
    <path d="M1223.7 867.8c12.6 12.6 33.1 12.6 45.7 0l299.9-299.9c12.6-12.6 12.6-33.1 0-45.7s-33.1-12.6-45.7 0l-299.9 299.9c-12.6 12.6-12.6 33.1 0 45.7"/>
  </g>
  <path fill="#ef5350" d="M582.5 793.7v.7c0 16.3-13 29.7-29.4 30.1h-.7c-16.3 0-29.7-13-30.1-29.4-.4-16.6 12.7-30.4 29.3-30.8h.8c16.3.1 29.6 13.1 30.1 29.4m74.9-222.6c-.1.6-.2 1.3-.4 1.9-.2 1.1-.5 2.3-.9 3.4-.2.9-.5 1.7-.8 2.6-1.6 5.3-3.8 10.5-6.5 15.6 0 .1-.1.2-.1.2-.8 1.5-1.7 3.1-2.8 4.8-4.6 7.5-11.5 16.3-20.6 26.4-1.6 1.8-3.3 3.7-5.1 5.6-5.4 5.8-11.4 12-18.2 18.5-12.4 12.2-19.4 22.3-23 29.1-4.9 9.1-3.2 31.9-3.5 42.4-.2 8.6-6.4 15.6-14.1 15.8l-26.3.7c-8 .2-14.5-6.8-14.7-15.7v-3.9c0-18.1-1.5-46.8 7.8-64.2 3.3-6.2 7-13.3 12.7-20.7 1.5-1.8 3-3.7 4.5-5.6 4.8-5.7 10.5-11.6 17-17.9 3.5-3.4 6.7-6.5 9.7-9.3 2.8-2.8 5.4-5.4 7.6-7.7 5.1-5.1 8.8-9.2 11.2-12.2 1-1.1 1.7-2.2 2.2-3 .3-.5.7-1.1 1-1.6 2.4-4 4.2-8.3 5.1-12.7.4-1.8.8-3.6 1-5.4.2-2.1.3-4.2.3-6.4-.1-3.6-.5-7.1-1.3-10.4-.4-1.8-.9-3.5-1.6-5.2-2.4-6.6-6.4-12.4-11.9-17.7-2.9-2.7-6.1-5-9.5-6.8-1.5-.9-3.1-1.6-4.8-2.2-1.4-.6-2.7-1-4.1-1.5-1.8-.6-3.6-1-5.5-1.4-4.4-.8-9.1-1.2-14.1-1-5.2.1-10.1.8-14.6 2-1.8.5-3.6 1.1-5.3 1.7-2 .8-3.8 1.6-5.6 2.6-1.6.8-3.1 1.7-4.6 2.7-2.8 1.9-5.5 4.1-8 6.6-7.8 7.8-13.6 18.6-17.4 32.3-2 7.4-8.4 12.2-15.2 11.5l-28.5-3.2c-8.5-.9-14.4-9.9-12.7-19.4 3.9-21.1 13.6-39.8 29.1-55.9 4.6-4.8 9.5-9 14.8-12.7 1.4-1 2.9-2 4.3-2.9 2.2-1.4 4.6-2.7 7-3.9 1.6-.8 3.2-1.6 4.8-2.3 14.1-6.4 30-9.8 48-10.3 20.2-.5 38 2.4 53.5 8.8 1.7.7 3.3 1.4 4.9 2.2l3.6 1.8c1.6.8 3.1 1.7 4.5 2.6 6 3.6 11.5 7.8 16.6 12.6 14 13.2 23.4 27.9 28.3 44.3.5 1.7 1 3.5 1.4 5.3 1.5 6.4 2.3 13.2 2.5 20.1.2 6.4-.3 12.8-1.7 19"/>
  <path fill="#eee" d="M529.7 795.7c-1.2 0-2.3-.9-2.4-2.2-1.2-11.6 6.2-17 10.3-18.2 1.3-.4 2.6.3 3 1.6s-.3 2.6-1.6 3c-.4.1-8 2.7-6.9 13.1.1 1.3-.8 2.5-2.2 2.7zm-60.2-289.1c-.6 0-1.3-.2-1.8-.5-1.7-1-2.3-3.2-1.3-5 .8-1.3 19.4-32.6 65.9-34.1 2-.1 3.7 1.5 3.8 3.5s-1.5 3.7-3.5 3.8c-42.3 1.4-59.2 29.3-59.9 30.5-.8 1.1-2 1.8-3.2 1.8"/>
</svg>
